<?xml version="1.0" encoding="UTF-8" standalone="no"?>
<!DOCTYPE svg PUBLIC "-//W3C//DTD SVG 1.1//EN"
 "http://www.w3.org/Graphics/SVG/1.1/DTD/svg11.dtd">
<!-- Generated by graphviz version 2.47.0 (20210316.0004)
 -->
<!-- Title: dependencies Pages: 1 -->
<svg width="536pt" height="211pt"
 viewBox="0.00 0.00 536.00 211.00" xmlns="http://www.w3.org/2000/svg" xmlns:xlink="http://www.w3.org/1999/xlink">
<g id="graph0" class="graph" transform="scale(1 1) rotate(0) translate(4 207)">
<title>dependencies</title>
<polygon fill="white" stroke="transparent" points="-4,4 -4,-207 532,-207 532,4 -4,4"/>
<text text-anchor="start" x="243.01" y="-42.4" font-family="Times-12" font-weight="bold" font-size="14.00">Legend</text>
<polygon fill="#ffffb3" stroke="transparent" points="30,-10 30,-30 50,-30 50,-10 30,-10"/>
<text text-anchor="start" x="53.63" y="-15.4" font-family="Times-12" font-size="14.00"> &#160;Declarations</text>
<polygon fill="#8dd3c7" stroke="transparent" points="143,-10 143,-30 163,-30 163,-10 143,-10"/>
<text text-anchor="start" x="166.73" y="-15.4" font-family="Times-12" font-size="14.00"> &#160;Module</text>
<polygon fill="#80b1d3" stroke="transparent" points="229,-10 229,-30 249,-30 249,-10 229,-10"/>
<text text-anchor="start" x="252.78" y="-15.4" font-family="Times-12" font-size="14.00"> &#160;Bootstrap</text>
<polygon fill="#fdb462" stroke="transparent" points="326,-10 326,-30 346,-30 346,-10 326,-10"/>
<text text-anchor="start" x="349.67" y="-15.4" font-family="Times-12" font-size="14.00"> &#160;Providers</text>
<polygon fill="#fb8072" stroke="transparent" points="422,-10 422,-30 442,-30 442,-10 422,-10"/>
<text text-anchor="start" x="445.73" y="-15.4" font-family="Times-12" font-size="14.00"> &#160;Exports</text>
<g id="clust1" class="cluster">
<title>cluster_AppModule</title>
<polygon fill="none" stroke="black" stroke-dasharray="1,5" points="8,-70 8,-195 520,-195 520,-70 8,-70"/>
</g>
<g id="clust6" class="cluster">
<title>cluster_AppModule_providers</title>
<polygon fill="none" stroke="black" points="382,-78 382,-130 512,-130 512,-78 382,-78"/>
</g>
<g id="clust3" class="cluster">
<title>cluster_AppModule_imports</title>
<polygon fill="none" stroke="black" points="16,-78 16,-130 374,-130 374,-78 16,-78"/>
</g>
<!-- ConfigModule -->
<g id="node1" class="node">
<title>ConfigModule</title>
<polygon fill="#8dd3c7" stroke="black" points="366.44,-122 363.44,-126 342.44,-126 339.44,-122 267.56,-122 267.56,-86 366.44,-86 366.44,-122"/>
<text text-anchor="middle" x="317" y="-99.8" font-family="Times,serif" font-size="14.00">ConfigModule</text>
</g>
<!-- AppModule -->
<g id="node4" class="node">
<title>AppModule</title>
<polygon fill="#8dd3c7" stroke="black" points="302.66,-187 299.66,-191 278.66,-191 275.66,-187 219.34,-187 219.34,-151 302.66,-151 302.66,-187"/>
<text text-anchor="middle" x="261" y="-164.8" font-family="Times,serif" font-size="14.00">AppModule</text>
</g>
<!-- ConfigModule&#45;&gt;AppModule -->
<g id="edge1" class="edge">
<title>ConfigModule&#45;&gt;AppModule</title>
<path fill="none" stroke="black" d="M285.3,-122.11C285.3,-122.11 285.3,-140.99 285.3,-140.99"/>
<polygon fill="black" stroke="black" points="281.8,-140.99 285.3,-150.99 288.8,-140.99 281.8,-140.99"/>
</g>
<!-- LockModule -->
<g id="node2" class="node">
<title>LockModule</title>
<polygon fill="#8dd3c7" stroke="black" points="250.32,-122 247.32,-126 226.32,-126 223.32,-122 161.68,-122 161.68,-86 250.32,-86 250.32,-122"/>
<text text-anchor="middle" x="206" y="-99.8" font-family="Times,serif" font-size="14.00">LockModule</text>
</g>
<!-- LockModule&#45;&gt;AppModule -->
<g id="edge2" class="edge">
<title>LockModule&#45;&gt;AppModule</title>
<path fill="none" stroke="black" d="M234.67,-122.11C234.67,-122.11 234.67,-140.99 234.67,-140.99"/>
<polygon fill="black" stroke="black" points="231.17,-140.99 234.67,-150.99 238.17,-140.99 231.17,-140.99"/>
</g>
<!-- WebhooksModule -->
<g id="node3" class="node">
<title>WebhooksModule</title>
<polygon fill="#8dd3c7" stroke="black" points="143.92,-122 140.92,-126 119.92,-126 116.92,-122 24.08,-122 24.08,-86 143.92,-86 143.92,-122"/>
<text text-anchor="middle" x="84" y="-99.8" font-family="Times,serif" font-size="14.00">WebhooksModule</text>
</g>
<!-- WebhooksModule&#45;&gt;AppModule -->
<g id="edge3" class="edge">
<title>WebhooksModule&#45;&gt;AppModule</title>
<path fill="none" stroke="black" d="M84,-122.11C84,-141.34 84,-169 84,-169 84,-169 209.05,-169 209.05,-169"/>
<polygon fill="black" stroke="black" points="209.05,-172.5 219.05,-169 209.05,-165.5 209.05,-172.5"/>
</g>
<!-- AppService -->
<g id="node5" class="node">
<title>AppService</title>
<ellipse fill="#fdb462" stroke="black" cx="447" cy="-104" rx="56.74" ry="18"/>
<text text-anchor="middle" x="447" y="-99.8" font-family="Times,serif" font-size="14.00">AppService</text>
</g>
<!-- AppService&#45;&gt;AppModule -->
<g id="edge4" class="edge">
<title>AppService&#45;&gt;AppModule</title>
<path fill="none" stroke="black" d="M447,-122.11C447,-141.34 447,-169 447,-169 447,-169 312.74,-169 312.74,-169"/>
<polygon fill="black" stroke="black" points="312.74,-165.5 302.74,-169 312.74,-172.5 312.74,-165.5"/>
</g>
</g>
</svg>
