<?xml version="1.0" encoding="UTF-8" standalone="no"?>
<!DOCTYPE svg PUBLIC "-//W3C//DTD SVG 1.1//EN"
 "http://www.w3.org/Graphics/SVG/1.1/DTD/svg11.dtd">
<!-- Generated by graphviz version 2.47.0 (20210316.0004)
 -->
<!-- Title: dependencies Pages: 1 -->
<svg width="536pt" height="211pt"
 viewBox="0.00 0.00 536.00 211.00" xmlns="http://www.w3.org/2000/svg" xmlns:xlink="http://www.w3.org/1999/xlink">
<g id="graph0" class="graph" transform="scale(1 1) rotate(0) translate(4 207)">
<title>dependencies</title>
<polygon fill="white" stroke="transparent" points="-4,4 -4,-207 532,-207 532,4 -4,4"/>
<text text-anchor="start" x="243.01" y="-42.4" font-family="Times-12" font-weight="bold" font-size="14.00">Legend</text>
<polygon fill="#ffffb3" stroke="transparent" points="30,-10 30,-30 50,-30 50,-10 30,-10"/>
<text text-anchor="start" x="53.63" y="-15.4" font-family="Times-12" font-size="14.00"> &#160;Declarations</text>
<polygon fill="#8dd3c7" stroke="transparent" points="143,-10 143,-30 163,-30 163,-10 143,-10"/>
<text text-anchor="start" x="166.73" y="-15.4" font-family="Times-12" font-size="14.00"> &#160;Module</text>
<polygon fill="#80b1d3" stroke="transparent" points="229,-10 229,-30 249,-30 249,-10 229,-10"/>
<text text-anchor="start" x="252.78" y="-15.4" font-family="Times-12" font-size="14.00"> &#160;Bootstrap</text>
<polygon fill="#fdb462" stroke="transparent" points="326,-10 326,-30 346,-30 346,-10 326,-10"/>
<text text-anchor="start" x="349.67" y="-15.4" font-family="Times-12" font-size="14.00"> &#160;Providers</text>
<polygon fill="#fb8072" stroke="transparent" points="422,-10 422,-30 442,-30 442,-10 422,-10"/>
<text text-anchor="start" x="445.73" y="-15.4" font-family="Times-12" font-size="14.00"> &#160;Exports</text>
<g id="clust1" class="cluster">
<title>cluster_AppModule</title>
<polygon fill="none" stroke="black" stroke-dasharray="1,5" points="8,-70 8,-195 520,-195 520,-70 8,-70"/>
</g>
<g id="clust3" class="cluster">
<title>cluster_AppModule_imports</title>
<polygon fill="none" stroke="black" points="154,-78 154,-130 512,-130 512,-78 154,-78"/>
</g>
<g id="clust6" class="cluster">
<title>cluster_AppModule_providers</title>
<polygon fill="none" stroke="black" points="16,-78 16,-130 146,-130 146,-78 16,-78"/>
</g>
<!-- ConfigModule -->
<g id="node1" class="node">
<title>ConfigModule</title>
<polygon fill="#8dd3c7" stroke="black" points="504.44,-122 501.44,-126 480.44,-126 477.44,-122 405.56,-122 405.56,-86 504.44,-86 504.44,-122"/>
<text text-anchor="middle" x="455" y="-99.8" font-family="Times,serif" font-size="14.00">ConfigModule</text>
</g>
<!-- AppModule -->
<g id="node4" class="node">
<title>AppModule</title>
<polygon fill="#8dd3c7" stroke="black" points="324.66,-187 321.66,-191 300.66,-191 297.66,-187 241.34,-187 241.34,-151 324.66,-151 324.66,-187"/>
<text text-anchor="middle" x="283" y="-164.8" font-family="Times,serif" font-size="14.00">AppModule</text>
</g>
<!-- ConfigModule&#45;&gt;AppModule -->
<g id="edge1" class="edge">
<title>ConfigModule&#45;&gt;AppModule</title>
<path fill="none" stroke="black" d="M455,-122.11C455,-141.34 455,-169 455,-169 455,-169 335.08,-169 335.08,-169"/>
<polygon fill="black" stroke="black" points="335.08,-165.5 325.08,-169 335.08,-172.5 335.08,-165.5"/>
</g>
<!-- LockModule -->
<g id="node2" class="node">
<title>LockModule</title>
<polygon fill="#8dd3c7" stroke="black" points="388.32,-122 385.32,-126 364.32,-126 361.32,-122 299.68,-122 299.68,-86 388.32,-86 388.32,-122"/>
<text text-anchor="middle" x="344" y="-99.8" font-family="Times,serif" font-size="14.00">LockModule</text>
</g>
<!-- LockModule&#45;&gt;AppModule -->
<g id="edge2" class="edge">
<title>LockModule&#45;&gt;AppModule</title>
<path fill="none" stroke="black" d="M312.33,-122.11C312.33,-122.11 312.33,-140.99 312.33,-140.99"/>
<polygon fill="black" stroke="black" points="308.83,-140.99 312.33,-150.99 315.83,-140.99 308.83,-140.99"/>
</g>
<!-- WebhooksModule -->
<g id="node3" class="node">
<title>WebhooksModule</title>
<polygon fill="#8dd3c7" stroke="black" points="281.92,-122 278.92,-126 257.92,-126 254.92,-122 162.08,-122 162.08,-86 281.92,-86 281.92,-122"/>
<text text-anchor="middle" x="222" y="-99.8" font-family="Times,serif" font-size="14.00">WebhooksModule</text>
</g>
<!-- WebhooksModule&#45;&gt;AppModule -->
<g id="edge3" class="edge">
<title>WebhooksModule&#45;&gt;AppModule</title>
<path fill="none" stroke="black" d="M261.44,-122.11C261.44,-122.11 261.44,-140.99 261.44,-140.99"/>
<polygon fill="black" stroke="black" points="257.94,-140.99 261.44,-150.99 264.94,-140.99 257.94,-140.99"/>
</g>
<!-- AppService -->
<g id="node5" class="node">
<title>AppService</title>
<ellipse fill="#fdb462" stroke="black" cx="81" cy="-104" rx="56.74" ry="18"/>
<text text-anchor="middle" x="81" y="-99.8" font-family="Times,serif" font-size="14.00">AppService</text>
</g>
<!-- AppService&#45;&gt;AppModule -->
<g id="edge4" class="edge">
<title>AppService&#45;&gt;AppModule</title>
<path fill="none" stroke="black" d="M81,-122.11C81,-141.34 81,-169 81,-169 81,-169 231.15,-169 231.15,-169"/>
<polygon fill="black" stroke="black" points="231.15,-172.5 241.15,-169 231.15,-165.5 231.15,-172.5"/>
</g>
</g>
</svg>
